<svg width="92" height="103" viewBox="0 0 92 103" fill="none" xmlns="http://www.w3.org/2000/svg">
<mask id="mask0_521_2517" style="mask-type:alpha" maskUnits="userSpaceOnUse" x="0" y="0" width="92" height="103">
<path d="M45.7979 3.75671C50.7967 8.20417 53.5902 16.2169 51.4951 23.127C50.1351 28.6772 46.3125 34.3008 44.3277 38.785C43.1148 41.5784 42.784 43.7838 43.1148 45.5481C44.1807 50.3263 47.746 51.6863 52.4875 54.1857C55.3912 55.5824 58.6992 57.0159 62.1175 58.6331C74.4675 64.1098 84.5386 72.196 92 82.3406C92 73.5928 91.5957 68.2264 90.8606 66.2784C90.0887 64.2935 88.1774 62.0882 85.0899 59.6991C82.0024 57.3099 75.9377 55.3986 66.9325 53.9652C76.8933 53.3771 83.5462 51.576 86.9277 48.5988C90.3092 45.6216 92 39.7774 92 31.0663C92 21.5465 89.6109 14.5997 84.7958 10.2625C80.0176 5.92531 73.8059 3.20538 66.1974 2.13946C61.1619 1.4411 53.0756 0.963272 41.9386 0.742737C43.2618 1.62488 44.5482 2.61728 45.7979 3.71996V3.75671Z" fill="black"/>
<path d="M52.23 76.276C41.3871 69.2924 27.1625 61.5736 27.7506 45.9892C27.6771 37.2413 34.2197 29.4491 38.8141 23.3844C42.2324 18.9369 43.3719 14.0484 39.8065 9.08634C37.2704 5.6313 33.9624 2.94812 30.2868 0.632507C27.8242 0.632507 25.2512 0.632507 22.5681 0.632507H2.71993C1.21294 0.632507 0 1.84545 0 3.35244V99.5056C0 101.013 1.21294 102.226 2.71993 102.226H33.1537C34.6607 102.226 35.8737 101.013 35.8737 99.5056V78.8856C42.1589 78.8856 46.0183 79.584 47.4885 81.0175C48.9587 82.4509 49.6939 86.1633 49.6939 92.1177V99.5056C49.6939 101.013 50.9068 102.226 52.4138 102.226H74.504C70.2771 91.0151 62.7422 83.039 52.1933 76.276H52.23Z" fill="black"/>
</mask>
<g mask="url(#mask0_521_2517)">
<path d="M-18.378 -36.1234H106.592V136.629H-18.378V-36.1234Z" fill="url(#paint0_linear_521_2517)"/>
</g>
<defs>
<linearGradient id="paint0_linear_521_2517" x1="93.5" y1="-45.1175" x2="-8.02602" y2="-40.532" gradientUnits="userSpaceOnUse">
<stop stop-color="#5DC3A3"/>
<stop offset="0.459546" stop-color="#3CA6A4"/>
<stop offset="0.9999" stop-color="#0070A7"/>
</linearGradient>
</defs>
</svg>
