<svg width="256" height="282" viewBox="0 0 256 282" fill="none" xmlns="http://www.w3.org/2000/svg">
<mask id="mask0_2057_1367" style="mask-type:alpha" maskUnits="userSpaceOnUse" x="0" y="0" width="256" height="282">
<path d="M127.266 8.67229C141.142 21.0174 148.895 43.2591 143.08 62.44C139.305 77.846 128.694 93.4559 123.185 105.903C119.818 113.657 118.9 119.779 119.818 124.676C122.777 137.939 132.673 141.714 145.835 148.652C153.895 152.529 163.077 156.508 172.566 160.997C206.846 176.199 234.801 198.645 255.513 226.804C255.513 202.522 254.39 187.626 252.35 182.219C250.207 176.709 244.902 170.588 236.332 163.956C227.762 157.324 210.927 152.019 185.931 148.04C213.58 146.407 232.047 141.408 241.433 133.144C250.82 124.88 255.513 108.658 255.513 84.4776C255.513 58.0529 248.881 38.77 235.516 26.7309C222.252 14.6918 205.01 7.1419 183.89 4.18314C169.913 2.24465 147.467 0.918309 116.553 0.306152C120.226 2.75478 123.797 5.50948 127.266 8.57026V8.67229Z" fill="black"/>
<path d="M145.12 209.97C115.022 190.585 75.5381 169.159 77.1705 125.9C76.9665 101.618 95.1271 79.9884 107.88 63.1541C117.369 50.809 120.532 37.2395 110.635 23.466C103.595 13.8755 94.4129 6.42764 84.2103 0C77.3746 0 70.2328 0 62.7849 0H7.6908C3.50773 0 0.140869 3.36686 0.140869 7.54993V274.45C0.140869 278.633 3.50773 282 7.6908 282H92.1684C96.3515 282 99.7183 278.633 99.7183 274.45V217.213C117.165 217.213 127.877 219.152 131.959 223.131C136.04 227.11 138.08 237.415 138.08 253.943V274.45C138.08 278.633 141.447 282 145.63 282H206.948C195.215 250.882 174.299 228.742 145.018 209.97H145.12Z" fill="black"/>
</mask>
<g mask="url(#mask0_2057_1367)">
<rect x="-50.8723" y="-102.026" width="346.889" height="479.522" fill="url(#paint0_linear_2057_1367)"/>
</g>
<defs>
<linearGradient id="paint0_linear_2057_1367" x1="-50.8723" y1="377.496" x2="345.387" y2="332.47" gradientUnits="userSpaceOnUse">
<stop stop-color="#ED6A01"/>
<stop offset="1" stop-color="#FFCC00"/>
</linearGradient>
</defs>
</svg>
